<svg width="21" height="22" viewBox="0 0 21 22" fill="none" xmlns="http://www.w3.org/2000/svg">
<path d="M18 3.85543C18 2.83291 17.6049 1.85226 16.9016 1.12923C16.1984 0.406196 15.2446 0 14.25 0H3.75C2.75544 0 1.80161 0.406196 1.09835 1.12923C0.395088 1.85226 0 2.83291 0 3.85543V14.6506C0 15.6732 0.395088 16.6538 1.09835 17.3768C1.80161 18.0999 2.75544 18.5061 3.75 18.5061H9.057C9.0171 18.2511 8.99804 17.9932 9 17.735C9 17.4708 9.025 17.2137 9.075 16.9639H3.75C3.15326 16.9639 2.58097 16.7202 2.15901 16.2864C1.73705 15.8525 1.5 15.2642 1.5 14.6506V6.16869H16.5V6.23192C17.0385 6.32445 17.544 6.51722 18 6.7871V3.85543ZM3.75 1.54217H14.25C14.8467 1.54217 15.419 1.78589 15.841 2.21971C16.2629 2.65353 16.5 3.24192 16.5 3.85543V4.62652H1.5V3.85543C1.5 3.24192 1.73705 2.65353 2.15901 2.21971C2.58097 1.78589 3.15326 1.54217 3.75 1.54217ZM18.75 10.7952C18.75 11.6132 18.4339 12.3977 17.8713 12.9762C17.3087 13.5546 16.5457 13.8796 15.75 13.8796C14.9544 13.8796 14.1913 13.5546 13.6287 12.9762C13.0661 12.3977 12.75 11.6132 12.75 10.7952C12.75 9.97719 13.0661 9.19268 13.6287 8.61425C14.1913 8.03582 14.9544 7.71087 15.75 7.71087C16.5457 7.71087 17.3087 8.03582 17.8713 8.61425C18.4339 9.19268 18.75 9.97719 18.75 10.7952ZM21 17.735C21 19.655 19.5 21.5904 15.75 21.5904C12 21.5904 10.5 19.6627 10.5 17.735C10.5 17.1215 10.7371 16.5331 11.159 16.0993C11.581 15.6655 12.1533 15.4217 12.75 15.4217H18.75C19.3467 15.4217 19.919 15.6655 20.341 16.0993C20.7629 16.5331 21 17.1215 21 17.735Z" fill="#6F767E"/>
</svg>
