<svg width="36" height="41" viewBox="0 0 36 41" fill="none" xmlns="http://www.w3.org/2000/svg">
<rect x="1" y="1" width="34" height="39" rx="5" fill="#050132" stroke="#050132" stroke-width="2"/>
<path d="M26 20.4996H15.3146M11.5429 20.4996H10M11.5429 20.4996C11.5429 20.0061 11.7416 19.5329 12.0951 19.1839C12.4487 18.835 12.9283 18.639 13.4283 18.639C13.9284 18.639 14.4079 18.835 14.7615 19.1839C15.1151 19.5329 15.3137 20.0061 15.3137 20.4996C15.3137 20.993 15.1151 21.4663 14.7615 21.8152C14.4079 22.1641 13.9284 22.3602 13.4283 22.3602C12.9283 22.3602 12.4487 22.1641 12.0951 21.8152C11.7416 21.4663 11.5429 20.993 11.5429 20.4996ZM26 26.1385H21.0288M21.0288 26.1385C21.0288 26.6321 20.8296 27.1059 20.476 27.4549C20.1223 27.8039 19.6426 28 19.1425 28C18.6424 28 18.1629 27.8031 17.8093 27.4542C17.4557 27.1053 17.2571 26.632 17.2571 26.1385M21.0288 26.1385C21.0288 25.645 20.8296 25.172 20.476 24.823C20.1223 24.474 19.6426 24.278 19.1425 24.278C18.6424 24.278 18.1629 24.474 17.8093 24.8229C17.4557 25.1718 17.2571 25.6451 17.2571 26.1385M17.2571 26.1385H10M26 14.8606H23.3146M19.5429 14.8606H10M19.5429 14.8606C19.5429 14.3671 19.7416 13.8939 20.0951 13.545C20.4487 13.196 20.9283 13 21.4283 13C21.6759 13 21.9211 13.0481 22.1498 13.1416C22.3786 13.2351 22.5864 13.3722 22.7615 13.545C22.9366 13.7177 23.0755 13.9228 23.1702 14.1486C23.265 14.3743 23.3137 14.6163 23.3137 14.8606C23.3137 15.1049 23.265 15.3469 23.1702 15.5726C23.0755 15.7984 22.9366 16.0035 22.7615 16.1762C22.5864 16.349 22.3786 16.4861 22.1498 16.5796C21.9211 16.6731 21.6759 16.7212 21.4283 16.7212C20.9283 16.7212 20.4487 16.5252 20.0951 16.1762C19.7416 15.8273 19.5429 15.3541 19.5429 14.8606Z" stroke="white" stroke-miterlimit="10" stroke-linecap="round"/>
</svg>
