<svg width="41" height="40" viewBox="0 0 41 40" fill="none" xmlns="http://www.w3.org/2000/svg">
<rect x="0.5" y="0.5" width="39.249" height="39" rx="19.5" stroke="#535763"/>
<path d="M20.5 11C22.7543 11 24.9163 11.8579 26.5104 13.385C28.1045 14.9121 29 16.9832 29 19.1429C29 22.514 26.3178 26.0462 21.0667 29.819C20.9032 29.9365 20.7043 30 20.5 30C20.2957 30 20.0968 29.9365 19.9333 29.819C14.6822 26.0462 12 22.514 12 19.1429C12 16.9832 12.8955 14.9121 14.4896 13.385C16.0837 11.8579 18.2457 11 20.5 11ZM20.5 12.8095C18.7466 12.8095 17.0651 13.4768 15.8252 14.6645C14.5854 15.8522 13.8889 17.4632 13.8889 19.1429C13.8889 21.5948 15.8892 24.423 19.9787 27.5626L20.5 27.957L21.0213 27.5626C25.1108 24.423 27.1111 21.5948 27.1111 19.1429C27.1111 17.4632 26.4146 15.8522 25.1748 14.6645C23.9349 13.4768 22.2534 12.8095 20.5 12.8095ZM20.5 17.3333C21.001 17.3333 21.4814 17.524 21.8356 17.8633C22.1899 18.2027 22.3889 18.6629 22.3889 19.1429C22.3889 19.6228 22.1899 20.083 21.8356 20.4224C21.4814 20.7617 21.001 20.9524 20.5 20.9524C19.999 20.9524 19.5186 20.7617 19.1644 20.4224C18.8101 20.083 18.6111 19.6228 18.6111 19.1429C18.6111 18.6629 18.8101 18.2027 19.1644 17.8633C19.5186 17.524 19.999 17.3333 20.5 17.3333Z" fill="#535763"/>
</svg>
