<svg width="20" height="20" viewBox="0 0 20 20" fill="none" xmlns="http://www.w3.org/2000/svg">
<path d="M10.0029 0C11.5135 0.000872762 13.0042 0.343755 14.3633 1.00292C15.7224 1.66208 16.9145 2.6204 17.8501 3.80596C18.7858 4.99152 19.4407 6.37354 19.7657 7.8483C20.0907 9.32306 20.0774 10.8523 19.7268 12.3211C19.3762 13.79 18.6973 15.1604 17.7412 16.3296C16.785 17.4987 15.5764 18.4361 14.2061 19.0715C12.8357 19.707 11.3392 20.0239 9.82888 19.9985C8.31852 19.9731 6.83352 19.606 5.48534 18.9249L5.33404 18.8436L0.776475 19.9811C0.688763 20.0032 0.59731 20.0059 0.508428 19.9892C0.419545 19.9725 0.335348 19.9367 0.261649 19.8843C0.187949 19.8319 0.1265 19.7641 0.0815434 19.6857C0.0365866 19.6072 0.00919196 19.52 0.00125027 19.4299V19.3274L0.0187556 19.2236L1.15658 14.6687L1.07781 14.5187C0.507046 13.3921 0.154906 12.1676 0.0400116 10.9099L0.00875249 10.4324L0 9.99994C0 7.34779 1.05387 4.80427 2.92978 2.92892C4.80569 1.05356 7.34996 0 10.0029 0ZM10.0029 1.24999C8.47553 1.24975 6.97469 1.64907 5.64951 2.40829C4.32434 3.1675 3.22096 4.26018 2.44904 5.57773C1.67711 6.89528 1.2635 8.39184 1.24932 9.91868C1.23514 11.4455 1.62087 12.9495 2.36818 14.2812C2.4262 14.3847 2.45353 14.5027 2.44696 14.6212L2.42945 14.7387L1.48418 18.5149L5.26527 17.5724C5.34213 17.5534 5.4219 17.5491 5.50034 17.5599L5.61412 17.5861L5.7229 17.6349C6.88992 18.288 8.19114 18.6651 9.52664 18.7372C10.8621 18.8092 12.1964 18.5744 13.427 18.0506C14.6575 17.5269 15.7517 16.7281 16.6253 15.7158C17.499 14.7035 18.129 13.5044 18.4669 12.2107C18.8049 10.9171 18.8417 9.56319 18.5747 8.25306C18.3077 6.94292 17.7439 5.71139 16.9266 4.65302C16.1093 3.59465 15.0603 2.7376 13.8601 2.14769C12.6598 1.55777 11.3403 1.25068 10.0029 1.24999ZM10.6281 11.2499C10.7843 11.2496 10.935 11.3078 11.0504 11.4131C11.1659 11.5183 11.2377 11.6629 11.2518 11.8185C11.266 11.974 11.2213 12.1292 11.1267 12.2535C11.0321 12.3777 10.8943 12.4621 10.7406 12.4899L10.6281 12.4999H6.87699C6.72076 12.5002 6.57009 12.442 6.45464 12.3368C6.33919 12.2316 6.26733 12.0869 6.25321 11.9314C6.2391 11.7759 6.28375 11.6207 6.37837 11.4964C6.47299 11.3721 6.61073 11.2878 6.76446 11.2599L6.87699 11.2499H10.6281ZM13.1288 7.49996C13.285 7.49967 13.4357 7.55787 13.5511 7.66309C13.6666 7.76831 13.7385 7.91294 13.7526 8.06848C13.7667 8.22402 13.722 8.37921 13.6274 8.50349C13.5328 8.62777 13.3951 8.71212 13.2413 8.73995L13.1288 8.74995H6.87699C6.72076 8.75024 6.57009 8.69204 6.45464 8.58681C6.33919 8.48159 6.26733 8.33697 6.25321 8.18143C6.2391 8.02588 6.28375 7.87069 6.37837 7.74641C6.47299 7.62214 6.61073 7.53778 6.76446 7.50996L6.87699 7.49996H13.1288Z" fill="#6F767E"/>
</svg>
