<svg width="15" height="19" viewBox="0 0 15 19" fill="none" xmlns="http://www.w3.org/2000/svg">
<path d="M1 10.8421C1 10.3675 1.18853 9.91233 1.52412 9.57674C1.85972 9.24115 2.31488 9.05261 2.78947 9.05261H11.7368C12.2114 9.05261 12.6666 9.24115 13.0022 9.57674C13.3378 9.91233 13.5263 10.3675 13.5263 10.8421V16.2105C13.5263 16.6851 13.3378 17.1403 13.0022 17.4759C12.6666 17.8114 12.2114 18 11.7368 18H2.78947C2.31488 18 1.85972 17.8114 1.52412 17.4759C1.18853 17.1403 1 16.6851 1 16.2105V10.8421Z" stroke="white" stroke-width="1.5" stroke-linecap="round" stroke-linejoin="round"/>
<path d="M3.68408 9.05263V4.57895C3.68408 3.62975 4.06115 2.71943 4.73233 2.04825C5.40351 1.37707 6.31383 1 7.26303 1C8.21223 1 9.12254 1.37707 9.79373 2.04825C10.4649 2.71943 10.842 3.62975 10.842 4.57895M6.36829 13.5263C6.36829 13.7636 6.46256 13.9912 6.63036 14.159C6.79815 14.3268 7.02573 14.4211 7.26303 14.4211C7.50033 14.4211 7.72791 14.3268 7.8957 14.159C8.0635 13.9912 8.15777 13.7636 8.15777 13.5263C8.15777 13.289 8.0635 13.0614 7.8957 12.8936C7.72791 12.7258 7.50033 12.6316 7.26303 12.6316C7.02573 12.6316 6.79815 12.7258 6.63036 12.8936C6.46256 13.0614 6.36829 13.289 6.36829 13.5263Z" stroke="white" stroke-width="1.5" stroke-linecap="round" stroke-linejoin="round"/>
</svg>
