<svg width="51" height="51" viewBox="0 0 51 51" fill="none" xmlns="http://www.w3.org/2000/svg">
<circle cx="25.48" cy="25.48" r="25.48" fill="#F54731" fill-opacity="0.3"/>
<path d="M24 34H18C17.4696 34 16.9609 33.7893 16.5858 33.4142C16.2107 33.0391 16 32.5304 16 32V20C16 19.4696 16.2107 18.9609 16.5858 18.5858C16.9609 18.2107 17.4696 18 18 18H30C30.5304 18 31.0391 18.2107 31.4142 18.5858C31.7893 18.9609 32 19.4696 32 20V25M28 16V20M20 16V20M16 24H32M31.001 34C30.4706 34 29.9619 33.7893 29.5868 33.4142C29.2117 33.0391 29.001 32.5304 29.001 32C29.001 31.4696 29.2117 30.9609 29.5868 30.5858C29.9619 30.2107 30.4706 30 31.001 30M31.001 34C31.5314 34 32.0401 33.7893 32.4152 33.4142C32.7903 33.0391 33.001 32.5304 33.001 32C33.001 31.4696 32.7903 30.9609 32.4152 30.5858C32.0401 30.2107 31.5314 30 31.001 30M31.001 34V35.5M31.001 30V28.5M34.032 30.25L32.733 31M29.27 33L27.97 33.75M27.97 30.25L29.27 31M32.733 33L34.033 33.75" stroke="#F54731" stroke-width="2" stroke-linecap="round" stroke-linejoin="round"/>
</svg>
