<svg width="44" height="44" viewBox="0 0 44 44" fill="none" xmlns="http://www.w3.org/2000/svg">
<path d="M19.4993 6.76879L19.5 6.76738C20.3167 5.12553 21.2672 4.55713 22.0025 4.55713C22.739 4.55713 23.694 5.12705 24.5197 6.76957C24.5198 6.76977 24.5199 6.76998 24.52 6.77019L27.7447 13.2196C28.0321 13.8047 28.5284 14.3301 29.0633 14.7267C29.5991 15.124 30.2433 15.4436 30.8763 15.5511L30.8789 15.5516L36.7269 16.5232C36.727 16.5232 36.7271 16.5232 36.7272 16.5232C38.4669 16.8133 39.2792 17.5427 39.5045 18.2482C39.73 18.9544 39.4902 20.0211 38.2448 21.2664L33.6982 25.813C33.2008 26.3104 32.8497 26.9978 32.6527 27.6861C32.4555 28.3748 32.3902 29.1425 32.5433 29.8257L32.5444 29.8307L32.5445 29.8307L33.8461 35.459L33.8461 35.4591C34.3439 37.6102 33.9223 38.7292 33.351 39.1461C32.7792 39.5633 31.5821 39.6242 29.6796 38.4951L29.6789 38.4946L24.1972 35.2496L24.1923 35.2468L24.1923 35.2468C23.5472 34.8714 22.7491 34.705 21.9933 34.705C21.2382 34.705 20.442 34.8711 19.8031 35.2496C19.803 35.2497 19.8029 35.2498 19.8028 35.2498L14.3221 38.4943L19.4993 6.76879ZM19.4993 6.76879L16.2754 13.2166C16.2749 13.2176 16.2744 13.2187 16.2739 13.2197C15.9864 13.805 15.4898 14.3307 14.9517 14.7277C14.4122 15.1258 13.7631 15.4446 13.1218 15.5515L13.1214 15.5516M19.4993 6.76879L13.1214 15.5516M13.1214 15.5516L7.27346 16.5232C7.27334 16.5232 7.27322 16.5232 7.27309 16.5232C5.5327 16.8134 4.71552 17.5435 4.48856 18.2496C4.26213 18.954 4.49999 20.0194 5.75369 21.2646L5.7555 21.2664M13.1214 15.5516L5.7555 21.2664M5.7555 21.2664L10.3022 25.813C10.7996 26.3104 11.1506 26.9978 11.3477 27.6861C11.5448 28.3748 11.6101 29.1425 11.457 29.8257L11.457 29.8257M5.7555 21.2664L11.457 29.8257M11.457 29.8257L11.4559 29.8307M11.457 29.8257L11.4559 29.8307M11.4559 29.8307L10.1543 35.4585L11.4559 29.8307ZM10.6422 39.1527C10.0752 38.7394 9.65567 37.6229 10.1542 35.459L10.6422 39.1527ZM10.6422 39.1527C11.2105 39.5671 12.4064 39.6257 14.3214 38.4946L10.6422 39.1527Z" fill="#FABF35" stroke="#FABF35" stroke-width="1.5" stroke-linecap="round" stroke-linejoin="round"/>
<path d="M25.8886 21.1174C25.2009 21.1174 24.6434 20.5599 24.6434 19.8722C24.6434 19.1844 25.2009 18.627 25.8886 18.627C26.5763 18.627 27.1338 19.1844 27.1338 19.8722C27.1338 20.5599 26.5763 21.1174 25.8886 21.1174Z" fill="#BB8300"/>
<path d="M17.9735 21.1174C17.2858 21.1174 16.7284 20.5599 16.7284 19.8722C16.7284 19.1844 17.2858 18.627 17.9735 18.627C18.6612 18.627 19.2188 19.1844 19.2188 19.8722C19.2188 20.5599 18.6612 21.1174 17.9735 21.1174Z" fill="#BB8300"/>
<path d="M26.5041 25.6116C26.8345 25.6204 27.0283 25.938 27.0283 26.7935C27.0283 29.6346 22.8613 29.723 22.0515 29.7133C21.2758 29.7241 17.0612 29.6502 17.0612 26.7937C17.0612 25.9645 17.2433 25.6406 17.5554 25.6135" fill="#BB8300"/>
</svg>
