<svg width="15" height="15" viewBox="0 0 15 15" fill="none" xmlns="http://www.w3.org/2000/svg">
<path fill-rule="evenodd" clip-rule="evenodd" d="M7.9088 0.085003L7.90059 0.0864963L7.8476 0.112618L7.83267 0.115603L7.82223 0.112618L7.76924 0.0864963C7.76128 0.0840085 7.75531 0.0852518 7.75133 0.0902273L7.74834 0.0976907L7.73565 0.417118L7.73938 0.432045L7.74685 0.441748L7.82446 0.496976L7.83566 0.499961L7.84462 0.496976L7.92223 0.441748L7.93119 0.429806L7.93418 0.417118L7.92149 0.0984366C7.9195 0.0904758 7.91527 0.0859981 7.9088 0.085003ZM8.10658 0.000668822L8.09687 0.00216066L7.9588 0.0715694L7.95134 0.0790328L7.9491 0.0872422L7.96254 0.408163L7.96627 0.417118L7.97224 0.422343L8.12225 0.491751C8.1317 0.494239 8.13892 0.492249 8.14389 0.485781L8.14688 0.475333L8.1215 0.0170875C8.11902 0.00813161 8.11404 0.00265903 8.10658 0.000668822ZM7.57295 0.00216066C7.56966 0.000167476 7.56573 -0.0004786 7.56198 0.000355651C7.55822 0.0011899 7.55494 0.00344048 7.5528 0.00663901L7.54832 0.0170875L7.52295 0.475333C7.52345 0.484289 7.52768 0.490259 7.53564 0.493245L7.54683 0.491751L7.69684 0.422343L7.70431 0.416372L7.70729 0.408163L7.71998 0.0872422L7.71774 0.0782869L7.71028 0.0708235L7.57295 0.00216066Z" fill="#A9A9A9"/>
<path fill-rule="evenodd" clip-rule="evenodd" d="M14.5906 3.82814C14.8005 4.03808 14.9184 4.32278 14.9184 4.61962C14.9184 4.91647 14.8005 5.20117 14.5906 5.4111L6.19969 13.8021C6.0888 13.913 5.95715 14.001 5.81225 14.061C5.66736 14.121 5.51206 14.1519 5.35522 14.1519C5.19838 14.1519 5.04308 14.121 4.89819 14.061C4.75329 14.001 4.62164 13.913 4.51075 13.8021L0.341767 9.63382C0.234845 9.53055 0.149559 9.40702 0.0908879 9.27044C0.0322165 9.13386 0.00133395 8.98696 4.22682e-05 8.83831C-0.00124942 8.68967 0.0270757 8.54225 0.0833647 8.40467C0.139654 8.26709 0.222779 8.1421 0.327891 8.03699C0.433003 7.93188 0.557996 7.84875 0.695578 7.79246C0.833159 7.73617 0.980573 7.70785 1.12922 7.70914C1.27786 7.71043 1.42476 7.74131 1.56135 7.79998C1.69793 7.85866 1.82146 7.94394 1.92473 8.05086L5.35485 11.481L13.0069 3.82814C13.1109 3.72411 13.2343 3.64159 13.3702 3.58528C13.5061 3.52898 13.6517 3.5 13.7988 3.5C13.9459 3.5 14.0915 3.52898 14.2274 3.58528C14.3632 3.64159 14.4867 3.72411 14.5906 3.82814Z" fill="#A9A9A9"/>
</svg>
